<svg width="512" height="512" viewBox="0 0 512 512" fill="none" xmlns="http://www.w3.org/2000/svg">
  <rect width="512" height="512" rx="120" fill="#4F7942"/>
  <path d="M256 120C240.536 120 228 132.536 228 148C228 152.091 228.882 155.973 230.457 159.489L134.194 300.323C126.98 310.873 134.542 325 147.261 325H364.739C377.458 325 385.021 310.873 377.806 300.323L281.543 159.489C283.118 155.973 284 152.091 284 148C284 132.536 271.464 120 256 120ZM256 160C262.627 160 268 154.627 268 148C268 141.373 262.627 136 256 136C249.373 136 244 141.373 244 148C244 154.627 249.373 160 256 160Z" fill="white"/>
  <path d="M380 180L400 160M400 200L380 180L400 160M380 180H420" stroke="white" stroke-width="20" stroke-linecap="round" stroke-linejoin="round"/>
  <circle cx="400" cy="180" r="10" fill="white"/>
</svg>
